# xmcd
#
# Track frame offsets:
#	150
#	18423
#	37361
#	51750
#	78441
#	93292
#	109250
#	132676
#	156132
#	181600
#
# Disc length: 2769 seconds
#
# Revision: 1
# Processed by: cddbd v1.4PL0 Copyright (c) Steve Scherf et al.
# Submitted via: CDmax 1.8
#
DISCID=800acf0a
DTITLE=Bruce Springsteen - Is a Dream a Lie? Country and Folk Collection: 1980
DTITLE=Various Artist - 2000 [CD3]
DYEAR=2003
DGENRE=Country
TTITLE0=Red Headed Woman
TTITLE1=Cautious Man
TTITLE2=All that Heaven Will Allow
TTITLE3=One Step Up
TTITLE4=When You're Alone
TTITLE5=Dead Man Walking
TTITLE6=Sinaloa Cowboys
TTITLE7=Across the Border
TTITLE8=The Hitter
TTITLE9=The Ghost Of Tom Joad
EXTD=
EXTT0=
EXTT1=
EXTT2=
EXTT3=
EXTT4=
EXTT5=
EXTT6=
EXTT7=
EXTT8=
EXTT9=
PLAYORDER=
